<mxfile host="app.diagrams.net" modified="2024-05-06T09:07:35.043Z" agent="Mozilla/5.0 (Windows NT 10.0; Win64; x64) AppleWebKit/537.36 (KHTML, like Gecko) Chrome/122.0.0.0 Safari/537.36" etag="A0N8NdZQxMG_F1bU4JP1" version="24.3.1" type="device">
  <diagram name="Page-1" id="98A-B-gDdYWM9XkDde5L">
    <mxGraphModel dx="2261" dy="1875" grid="1" gridSize="10" guides="1" tooltips="1" connect="1" arrows="1" fold="1" page="1" pageScale="1" pageWidth="827" pageHeight="1169" math="0" shadow="0">
      <root>
        <mxCell id="0" />
        <mxCell id="1" parent="0" />
        <mxCell id="wvOy7265ZWeACoKVXmer-5" value="" style="edgeStyle=orthogonalEdgeStyle;rounded=0;orthogonalLoop=1;jettySize=auto;html=1;" edge="1" parent="1" source="wvOy7265ZWeACoKVXmer-3" target="wvOy7265ZWeACoKVXmer-4">
          <mxGeometry relative="1" as="geometry">
            <Array as="points">
              <mxPoint x="610" y="140" />
              <mxPoint x="610" y="140" />
            </Array>
          </mxGeometry>
        </mxCell>
        <mxCell id="wvOy7265ZWeACoKVXmer-3" value="" style="aspect=fixed;sketch=0;html=1;dashed=0;whitespace=wrap;fillColor=#2875E2;strokeColor=#ffffff;points=[[0.005,0.63,0],[0.1,0.2,0],[0.9,0.2,0],[0.5,0,0],[0.995,0.63,0],[0.72,0.99,0],[0.5,1,0],[0.28,0.99,0]];shape=mxgraph.kubernetes.icon2;kubernetesLabel=1;prIcon=node" vertex="1" parent="1">
          <mxGeometry x="490" y="101" width="103.13" height="99" as="geometry" />
        </mxCell>
        <mxCell id="wvOy7265ZWeACoKVXmer-7" value="" style="edgeStyle=orthogonalEdgeStyle;rounded=0;orthogonalLoop=1;jettySize=auto;html=1;" edge="1" parent="1" source="wvOy7265ZWeACoKVXmer-4" target="wvOy7265ZWeACoKVXmer-3">
          <mxGeometry relative="1" as="geometry">
            <Array as="points">
              <mxPoint x="650" y="160" />
              <mxPoint x="650" y="160" />
            </Array>
          </mxGeometry>
        </mxCell>
        <mxCell id="wvOy7265ZWeACoKVXmer-4" value="" style="dashed=0;outlineConnect=0;html=1;align=center;labelPosition=center;verticalLabelPosition=bottom;verticalAlign=top;shape=mxgraph.webicons.mongodb;gradientColor=#DFDEDE" vertex="1" parent="1">
          <mxGeometry x="670" y="100" width="102.4" height="102.4" as="geometry" />
        </mxCell>
        <mxCell id="wvOy7265ZWeACoKVXmer-11" value="" style="edgeStyle=orthogonalEdgeStyle;rounded=0;orthogonalLoop=1;jettySize=auto;html=1;" edge="1" parent="1">
          <mxGeometry relative="1" as="geometry">
            <mxPoint x="590" y="345" as="sourcePoint" />
            <mxPoint x="680" y="340" as="targetPoint" />
            <Array as="points">
              <mxPoint x="630" y="345" />
              <mxPoint x="630" y="340" />
            </Array>
          </mxGeometry>
        </mxCell>
        <mxCell id="wvOy7265ZWeACoKVXmer-28" value="" style="edgeStyle=orthogonalEdgeStyle;rounded=0;orthogonalLoop=1;jettySize=auto;html=1;" edge="1" parent="1" source="wvOy7265ZWeACoKVXmer-8" target="wvOy7265ZWeACoKVXmer-15">
          <mxGeometry relative="1" as="geometry">
            <mxPoint x="410" y="360" as="targetPoint" />
          </mxGeometry>
        </mxCell>
        <mxCell id="wvOy7265ZWeACoKVXmer-8" value="" style="image;aspect=fixed;html=1;points=[];align=center;fontSize=12;image=img/lib/azure2/compute/Azure_Spring_Cloud.svg;" vertex="1" parent="1">
          <mxGeometry x="490" y="310" width="100" height="100" as="geometry" />
        </mxCell>
        <mxCell id="wvOy7265ZWeACoKVXmer-12" value="" style="edgeStyle=orthogonalEdgeStyle;rounded=0;orthogonalLoop=1;jettySize=auto;html=1;" edge="1" parent="1">
          <mxGeometry relative="1" as="geometry">
            <mxPoint x="680" y="370" as="sourcePoint" />
            <mxPoint x="590" y="375" as="targetPoint" />
            <Array as="points">
              <mxPoint x="640" y="370" />
              <mxPoint x="640" y="375" />
            </Array>
          </mxGeometry>
        </mxCell>
        <mxCell id="wvOy7265ZWeACoKVXmer-9" value="" style="outlineConnect=0;dashed=0;verticalLabelPosition=bottom;verticalAlign=top;align=center;html=1;shape=mxgraph.aws3.mysql_db_instance_2;fillColor=#2E73B8;gradientColor=none;" vertex="1" parent="1">
          <mxGeometry x="680" y="310" width="90" height="100" as="geometry" />
        </mxCell>
        <mxCell id="wvOy7265ZWeACoKVXmer-14" value="Angular JS" style="rounded=0;whiteSpace=wrap;html=1;" vertex="1" parent="1">
          <mxGeometry x="480" y="-90" width="130" height="80" as="geometry" />
        </mxCell>
        <mxCell id="wvOy7265ZWeACoKVXmer-20" style="edgeStyle=orthogonalEdgeStyle;rounded=0;orthogonalLoop=1;jettySize=auto;html=1;exitX=0.5;exitY=0;exitDx=0;exitDy=0;exitPerimeter=0;entryX=0;entryY=0.5;entryDx=0;entryDy=0;" edge="1" parent="1" source="wvOy7265ZWeACoKVXmer-15" target="wvOy7265ZWeACoKVXmer-14">
          <mxGeometry relative="1" as="geometry" />
        </mxCell>
        <mxCell id="wvOy7265ZWeACoKVXmer-26" style="edgeStyle=orthogonalEdgeStyle;rounded=0;orthogonalLoop=1;jettySize=auto;html=1;exitX=0.75;exitY=1;exitDx=0;exitDy=0;exitPerimeter=0;" edge="1" parent="1" source="wvOy7265ZWeACoKVXmer-15">
          <mxGeometry relative="1" as="geometry">
            <mxPoint x="550" y="310" as="targetPoint" />
          </mxGeometry>
        </mxCell>
        <mxCell id="wvOy7265ZWeACoKVXmer-15" value="" style="sketch=0;points=[[0,0,0],[0.25,0,0],[0.5,0,0],[0.75,0,0],[1,0,0],[0,1,0],[0.25,1,0],[0.5,1,0],[0.75,1,0],[1,1,0],[0,0.25,0],[0,0.5,0],[0,0.75,0],[1,0.25,0],[1,0.5,0],[1,0.75,0]];outlineConnect=0;fontColor=#232F3E;fillColor=#E7157B;strokeColor=#ffffff;dashed=0;verticalLabelPosition=bottom;verticalAlign=top;align=center;html=1;fontSize=12;fontStyle=0;aspect=fixed;shape=mxgraph.aws4.resourceIcon;resIcon=mxgraph.aws4.api_gateway;" vertex="1" parent="1">
          <mxGeometry x="170" y="58.400000000000006" width="185.6" height="185.6" as="geometry" />
        </mxCell>
        <mxCell id="wvOy7265ZWeACoKVXmer-21" style="edgeStyle=orthogonalEdgeStyle;rounded=0;orthogonalLoop=1;jettySize=auto;html=1;exitX=0;exitY=0.75;exitDx=0;exitDy=0;entryX=0.593;entryY=0.009;entryDx=0;entryDy=0;entryPerimeter=0;" edge="1" parent="1" source="wvOy7265ZWeACoKVXmer-14" target="wvOy7265ZWeACoKVXmer-15">
          <mxGeometry relative="1" as="geometry" />
        </mxCell>
        <mxCell id="wvOy7265ZWeACoKVXmer-23" style="edgeStyle=orthogonalEdgeStyle;rounded=0;orthogonalLoop=1;jettySize=auto;html=1;exitX=0.005;exitY=0.63;exitDx=0;exitDy=0;exitPerimeter=0;entryX=1;entryY=0.553;entryDx=0;entryDy=0;entryPerimeter=0;" edge="1" parent="1" source="wvOy7265ZWeACoKVXmer-3" target="wvOy7265ZWeACoKVXmer-15">
          <mxGeometry relative="1" as="geometry" />
        </mxCell>
        <mxCell id="wvOy7265ZWeACoKVXmer-24" style="edgeStyle=orthogonalEdgeStyle;rounded=0;orthogonalLoop=1;jettySize=auto;html=1;entryX=0.1;entryY=0.533;entryDx=0;entryDy=0;entryPerimeter=0;" edge="1" parent="1" source="wvOy7265ZWeACoKVXmer-43" target="wvOy7265ZWeACoKVXmer-3">
          <mxGeometry relative="1" as="geometry" />
        </mxCell>
        <mxCell id="wvOy7265ZWeACoKVXmer-29" value="" style="image;aspect=fixed;perimeter=ellipsePerimeter;html=1;align=center;shadow=0;dashed=0;spacingTop=3;image=img/lib/active_directory/users.svg;" vertex="1" parent="1">
          <mxGeometry x="-70" y="75.5" width="108.57" height="164.5" as="geometry" />
        </mxCell>
        <mxCell id="wvOy7265ZWeACoKVXmer-31" value="" style="endArrow=classic;startArrow=classic;html=1;rounded=0;entryX=0;entryY=0.5;entryDx=0;entryDy=0;entryPerimeter=0;" edge="1" parent="1" target="wvOy7265ZWeACoKVXmer-15">
          <mxGeometry width="50" height="50" relative="1" as="geometry">
            <mxPoint x="40" y="150" as="sourcePoint" />
            <mxPoint x="110" y="120" as="targetPoint" />
          </mxGeometry>
        </mxCell>
        <mxCell id="wvOy7265ZWeACoKVXmer-32" value="Users" style="text;html=1;align=center;verticalAlign=middle;resizable=0;points=[];autosize=1;strokeColor=none;fillColor=none;" vertex="1" parent="1">
          <mxGeometry x="-65" y="248" width="50" height="30" as="geometry" />
        </mxCell>
        <mxCell id="wvOy7265ZWeACoKVXmer-35" value="Nginx on Port 80" style="text;html=1;align=center;verticalAlign=middle;resizable=0;points=[];autosize=1;strokeColor=none;fillColor=none;" vertex="1" parent="1">
          <mxGeometry x="150" y="248" width="110" height="30" as="geometry" />
        </mxCell>
        <mxCell id="wvOy7265ZWeACoKVXmer-36" value="Mysql 8 DB (emartdb)&lt;div&gt;Port: 3306&lt;/div&gt;&lt;div&gt;DB: books&lt;/div&gt;&lt;div&gt;Password :&amp;nbsp;&lt;span style=&quot;color: rgb(206, 145, 120); background-color: rgb(31, 31, 31); font-family: Consolas, &amp;quot;Courier New&amp;quot;, monospace; font-size: 14px; white-space-collapse: preserve;&quot;&gt;emartdbpass&lt;/span&gt;&lt;/div&gt;" style="text;html=1;align=center;verticalAlign=middle;resizable=0;points=[];autosize=1;strokeColor=none;fillColor=none;" vertex="1" parent="1">
          <mxGeometry x="650" y="420" width="170" height="70" as="geometry" />
        </mxCell>
        <mxCell id="wvOy7265ZWeACoKVXmer-37" value="Mongo DB 4 (emongo)&lt;div&gt;DB: epoc&lt;/div&gt;&lt;div&gt;Port: 27017&lt;/div&gt;" style="text;html=1;align=center;verticalAlign=middle;resizable=0;points=[];autosize=1;strokeColor=none;fillColor=none;" vertex="1" parent="1">
          <mxGeometry x="655" y="218" width="140" height="60" as="geometry" />
        </mxCell>
        <mxCell id="wvOy7265ZWeACoKVXmer-38" value="&lt;div&gt;Spring MS&lt;/div&gt;Port 9000" style="text;html=1;align=center;verticalAlign=middle;resizable=0;points=[];autosize=1;strokeColor=none;fillColor=none;" vertex="1" parent="1">
          <mxGeometry x="480" y="413" width="80" height="40" as="geometry" />
        </mxCell>
        <mxCell id="wvOy7265ZWeACoKVXmer-39" value="Node 14 API&amp;nbsp;&lt;div&gt;Port 5000&lt;div&gt;&lt;br&gt;&lt;/div&gt;&lt;/div&gt;" style="text;html=1;align=center;verticalAlign=middle;resizable=0;points=[];autosize=1;strokeColor=none;fillColor=none;" vertex="1" parent="1">
          <mxGeometry x="485" y="193" width="90" height="60" as="geometry" />
        </mxCell>
        <mxCell id="wvOy7265ZWeACoKVXmer-40" value="depends on both the APIs&lt;div&gt;Host with nginx static data&lt;/div&gt;" style="text;html=1;align=center;verticalAlign=middle;resizable=0;points=[];autosize=1;strokeColor=none;fillColor=none;" vertex="1" parent="1">
          <mxGeometry x="465" y="-15" width="160" height="40" as="geometry" />
        </mxCell>
        <mxCell id="wvOy7265ZWeACoKVXmer-42" value="Route /" style="whiteSpace=wrap;html=1;" vertex="1" parent="1">
          <mxGeometry x="250" y="-55" width="120" height="40" as="geometry" />
        </mxCell>
        <mxCell id="wvOy7265ZWeACoKVXmer-44" value="" style="edgeStyle=orthogonalEdgeStyle;rounded=0;orthogonalLoop=1;jettySize=auto;html=1;entryX=0.1;entryY=0.533;entryDx=0;entryDy=0;entryPerimeter=0;" edge="1" parent="1" source="wvOy7265ZWeACoKVXmer-15" target="wvOy7265ZWeACoKVXmer-43">
          <mxGeometry relative="1" as="geometry">
            <mxPoint x="356" y="151" as="sourcePoint" />
            <mxPoint x="500" y="154" as="targetPoint" />
          </mxGeometry>
        </mxCell>
        <mxCell id="wvOy7265ZWeACoKVXmer-43" value="Route /api" style="whiteSpace=wrap;html=1;" vertex="1" parent="1">
          <mxGeometry x="380" y="137.75" width="85" height="40" as="geometry" />
        </mxCell>
        <mxCell id="wvOy7265ZWeACoKVXmer-45" value="Route /webapi" style="whiteSpace=wrap;html=1;" vertex="1" parent="1">
          <mxGeometry x="320" y="300" width="85" height="40" as="geometry" />
        </mxCell>
      </root>
    </mxGraphModel>
  </diagram>
</mxfile>
